HIERARCHY
ROOT Hips
{
    OFFSET 0.000000 0.000000 0.000000
    CHANNELS 6 Xposition Yposition Zposition Zrotation Xrotation Yrotation
    JOINT Spine
    {
        OFFSET -0.000000 14.517291 0.000000
        CHANNELS 3 Zrotation Xrotation Yrotation
        JOINT Spine1
        {
            OFFSET -0.000000 37.558300 0.000000
            CHANNELS 3 Zrotation Xrotation Yrotation
            JOINT Neck
            {
                OFFSET -0.000000 37.404057 3.400369
                CHANNELS 3 Zrotation Xrotation Yrotation
                JOINT Head
                {
                    OFFSET -0.000000 24.785618 -3.540803
                    CHANNELS 3 Zrotation Xrotation Yrotation
                    End Site
                    {
                        OFFSET -0.000000 35.408028 0.000000
                    }
                }
            }
            JOINT LeftShoulder
            {
                OFFSET 6.992933 33.973492 -0.192664
                CHANNELS 3 Zrotation Xrotation Yrotation
                JOINT LeftArm
                {
                    OFFSET 21.527611 0.000000 0.000000
                    CHANNELS 3 Zrotation Xrotation Yrotation
                    JOINT LeftForeArm
                    {
                        OFFSET 56.353916 0.000000 0.000000
                        CHANNELS 3 Zrotation Xrotation Yrotation
                        JOINT LeftHand
                        {
                            OFFSET 47.774071 0.000000 0.000000
                            CHANNELS 3 Zrotation Xrotation Yrotation
                            End Site
                            {
                                OFFSET 26.556021 0.000000 0.000000
                            }
                        }
                    }
                }
            }
            JOINT RightShoulder
            {
                OFFSET -7.065357 33.973492 -0.192664
                CHANNELS 3 Zrotation Xrotation Yrotation
                JOINT RightArm
                {
                    OFFSET -21.527611 0.000000 0.000000
                    CHANNELS 3 Zrotation Xrotation Yrotation
                    JOINT RightForeArm
                    {
                        OFFSET -56.353916 0.000000 0.000000
                        CHANNELS 3 Zrotation Xrotation Yrotation
                        JOINT RightHand
                        {
                            OFFSET -47.774071 0.000000 0.000000
                            CHANNELS 3 Zrotation Xrotation Yrotation
                            End Site
                            {
                                OFFSET -26.556021 0.000000 0.000000
                            }
                        }
                    }
                }
            }
        }
    }
    JOINT LeftUpLeg
    {
        OFFSET 17.704014 0.000000 0.000000
        CHANNELS 3 Zrotation Xrotation Yrotation
        JOINT LeftLeg
        {
            OFFSET -0.000000 -81.181816 0.000000
            CHANNELS 3 Zrotation Xrotation Yrotation
            JOINT LeftFoot
            {
                OFFSET -0.000000 -62.821102 0.000000
                CHANNELS 3 Zrotation Xrotation Yrotation
                JOINT LeftToeBase
                {
                    OFFSET -0.000000 -11.507608 26.556021
                    CHANNELS 3 Zrotation Xrotation Yrotation
                    End Site
                    {
                        OFFSET -0.000000 0.000000 7.081605
                    }
                }
            }
        }
    }
    JOINT RightUpLeg
    {
        OFFSET -17.704014 0.000000 0.000000
        CHANNELS 3 Zrotation Xrotation Yrotation
        JOINT RightLeg
        {
            OFFSET -0.000000 -81.181816 0.000000
            CHANNELS 3 Zrotation Xrotation Yrotation
            JOINT RightFoot
            {
                OFFSET -0.000000 -62.821102 0.000000
                CHANNELS 3 Zrotation Xrotation Yrotation
                JOINT RightToeBase
                {
                    OFFSET -0.000000 -11.507608 26.556021
                    CHANNELS 3 Zrotation Xrotation Yrotation
                    End Site
                    {
                        OFFSET -0.000000 0.000000 7.081605
                    }
                }
            }
        }
    }
}
MOTION
Frames:    11
Frame Time:    0.008333
57.390797    152.158661    -8.878590    -1.605142    0.561997    -7.159051    3.307383    2.430102    9.705044    -4.083044    -0.486565    3.240676    7.387905    -6.537598    -4.918976    3.259438    8.938783    -6.439111    3.204554    3.674262    -8.817669    -43.807117    16.743162    -34.550457    -5.248080    -20.366482    -125.441864    -0.907434    -29.579544    -4.042742    -14.659509    -1.335769    4.573390    30.409428    -18.411755    74.150871    1.588752    -19.005890    22.924084    12.996664    -14.327165    43.474190    26.614571    -26.351658    -2.191663    -14.599483    31.258879    -13.541507    -13.414268    -9.426151    39.345829    0.000000    0.000000    0.000000    -15.949183    4.218157    -21.219820    1.980852    28.620869    -8.387608    15.399416    -20.028517    -8.141408    0.000000    0.000000    0.000000    
57.439758    152.194946    -8.999787    -1.657410    0.608424    -7.118191    3.341834    2.449876    9.702524    -4.070106    -0.506664    3.239613    7.401874    -6.537929    -4.938562    3.240076    8.937777    -6.463660    3.157891    3.705811    -8.801602    -43.927048    16.786987    -34.528156    -5.296781    -20.193302    -125.439140    -0.845779    -29.503967    -3.960181    -14.652912    -1.323532    4.568905    30.426826    -18.421270    74.151062    1.617388    -18.959148    22.931313    13.003664    -14.285518    43.448582    26.624596    -26.433111    -2.290449    -14.563005    31.191055    -13.580119    -13.479661    -9.387234    39.420654    0.000000    0.000000    0.000000    -15.928951    4.241449    -21.403509    1.970312    28.492931    -8.379495    15.530455    -19.880426    -7.868682    0.000000    0.000000    0.000000    
57.476509    152.231949    -9.109311    -1.702690    0.636793    -7.105433    3.377901    2.481669    9.708611    -4.071644    -0.537720    3.241092    7.393467    -6.496483    -4.968278    3.261277    8.912427    -6.488076    3.121928    3.764302    -8.765871    -44.040565    16.850504    -34.534786    -5.271370    -20.091824    -125.457420    -0.805883    -29.372726    -3.727761    -14.650123    -1.289184    4.557381    30.475513    -18.442755    74.185524    1.675388    -18.913689    22.932011    12.983345    -14.261561    43.423107    26.638704    -26.468546    -2.404711    -14.556496    31.092793    -13.571717    -13.510015    -9.333730    39.505322    0.000000    0.000000    0.000000    -15.898837    4.240288    -21.614202    1.923152    28.374470    -8.324457    15.608861    -19.734491    -7.724113    0.000000    0.000000    0.000000    
57.497086    152.265991    -9.215639    -1.749429    0.657118    -7.101673    3.396464    2.508980    9.724456    -4.041968    -0.572983    3.245675    7.411892    -6.457092    -4.988603    3.230402    8.909852    -6.512432    3.081834    3.827245    -8.747391    -44.179653    16.884914    -34.501911    -5.321657    -19.902267    -125.494339    -0.734701    -29.292322    -3.704062    -14.645019    -1.256716    4.562877    30.482952    -18.451172    74.196808    1.710954    -18.900381    22.909351    12.950158    -14.269174    43.410721    26.668898    -26.490355    -2.516941    -14.570489    30.992628    -13.542973    -13.534384    -9.280628    39.583862    0.000000    0.000000    0.000000    -15.873785    4.226308    -22.042021    1.764507    28.308638    -7.984748    15.639290    -19.596521    -7.618160    0.000000    0.000000    0.000000    
57.507290    152.296265    -9.320948    -1.795777    0.672508    -7.108716    3.429299    2.532629    9.741660    -4.041093    -0.599422    3.250965    7.409482    -6.425987    -5.007833    3.262865    8.921225    -6.528157    3.069030    3.866648    -8.731944    -44.350315    16.940252    -34.436226    -5.410472    -19.707586    -125.547005    -0.710356    -29.273752    -3.888222    -14.627675    -1.245863    4.570993    30.505032    -18.451735    74.207001    1.736687    -18.860924    22.857113    12.929601    -14.242440    43.400127    26.712948    -26.498720    -2.616062    -14.587183    30.893927    -13.528164    -13.586740    -9.245663    39.662964    0.000000    0.000000    0.000000    -15.841559    4.222055    -22.129007    1.779839    28.219360    -7.965425    15.642590    -19.501528    -7.559834    0.000000    0.000000    0.000000    
57.503639    152.322876    -9.427333    -1.840704    0.691875    -7.118875    3.454325    2.549699    9.755553    -4.021521    -0.629911    3.254972    7.439677    -6.393032    -5.014340    3.226799    8.920797    -6.541339    3.040565    3.906906    -8.696901    -44.460159    16.972164    -34.522198    -5.452062    -19.566561    -125.590309    -0.660259    -29.225348    -3.729056    -14.626491    -1.238419    4.583517    30.529440    -18.445400    74.222404    1.747989    -18.835331    22.780945    12.928564    -14.214349    43.426270    26.765469    -26.508671    -2.680417    -14.585789    30.802282    -13.534119    -13.629333    -9.189769    39.717201    0.000000    0.000000    0.000000    -15.804659    4.212923    -22.207834    1.797218    28.137833    -7.866090    15.651712    -19.449837    -7.580176    0.000000    0.000000    0.000000    
57.492714    152.342056    -9.533028    -1.876456    0.716767    -7.118714    3.469192    2.537271    9.765305    -3.995559    -0.629584    3.258369    7.482851    -6.374002    -5.014421    3.180315    8.914891    -6.551912    3.024691    3.924691    -8.671845    -44.637089    17.013273    -34.490108    -5.443272    -19.432909    -125.689987    -0.717496    -29.106073    -3.487406    -14.626479    -1.253053    4.595139    30.528515    -18.419270    74.212753    1.728132    -18.836763    22.710915    12.948311    -14.206267    43.402054    26.814373    -26.527693    -2.725975    -14.599948    30.703018    -13.497028    -13.658960    -9.126814    39.752743    0.000000    0.000000    0.000000    -15.773518    4.186584    -22.246929    1.831016    28.087942    -7.806471    15.622212    -19.422186    -7.620796    0.000000    0.000000    0.000000    
57.476189    152.356857    -9.628944    -1.905163    0.736720    -7.114001    3.492687    2.519174    9.763559    -3.988757    -0.629526    3.257793    7.487181    -6.319808    -5.022569    3.203336    8.876587    -6.555143    3.010277    3.952362    -8.632074    -44.787304    17.073135    -34.455521    -5.419978    -19.330641    -125.761589    -0.761492    -28.984190    -3.490836    -14.613246    -1.235060    4.616813    30.555103    -18.438868    74.237686    1.731173    -18.809870    22.620380    12.922071    -14.189905    43.388737    26.853525    -26.540871    -2.765151    -14.587279    30.614342    -13.520293    -13.715133    -9.078453    39.783337    0.000000    0.000000    0.000000    -15.745303    4.162776    -22.264883    1.858139    28.051523    -7.790884    15.629712    -19.395168    -7.610094    0.000000    0.000000    0.000000    
57.455242    152.366821    -9.715368    -1.930402    0.740412    -7.115575    3.512152    2.508433    9.769897    -3.981144    -0.623182    3.260218    7.485729    -6.300229    -5.027148    3.235785    8.875019    -6.556175    3.005430    3.974756    -8.580016    -44.942547    17.086359    -34.423244    -5.490565    -19.083179    -125.820732    -0.759974    -28.887707    -3.735282    -14.602904    -1.212986    4.624203    30.575228    -18.471508    74.264206    1.760559    -18.804884    22.529049    12.882035    -14.203616    43.397442    26.888422    -26.529928    -2.802744    -14.581808    30.518740    -13.516174    -13.760693    -9.040462    39.805683    0.000000    0.000000    0.000000    -15.726598    4.147679    -22.250149    1.906450    28.034311    -7.771157    15.605864    -19.398216    -7.659877    0.000000    0.000000    0.000000    
57.430935    152.371078    -9.793201    -1.948469    0.741797    -7.118886    3.537789    2.499721    9.761108    -3.989525    -0.626125    3.257232    7.496883    -6.301888    -5.023510    3.248617    8.913660    -6.555063    2.993346    4.004929    -8.507025    -45.060528    17.139273    -34.410824    -5.480664    -18.978437    -125.877625    -0.837789    -28.782484    -3.795558    -14.597004    -1.204170    4.650079    30.614309    -18.490337    74.288979    1.778600    -18.783297    22.437485    12.862013    -14.196412    43.358089    26.918421    -26.510485    -2.842779    -14.580277    30.414896    -13.504644    -13.768001    -8.980639    39.820206    0.000000    0.000000    0.000000    -15.709614    4.132373    -22.216467    1.949070    28.021976    -7.773964    15.610533    -19.402739    -7.691511    0.000000    0.000000    0.000000    
57.395958    152.373337    -9.862786    -1.970028    0.724218    -7.124027    3.550420    2.500857    9.756152    -3.960089    -0.630518    3.255697    7.432993    -6.278935    -5.027771    3.335265    8.922246    -6.539517    2.946679    4.023512    -8.476087    -45.164597    17.150782    -34.358791    -5.407679    -18.904453    -125.949211    -0.941441    -28.600058    -3.622722    -14.621085    -1.167132    4.662450    30.645628    -18.500942    74.337883    1.765463    -18.812012    22.331688    12.879324    -14.216223    43.347107    26.951139    -26.466415    -2.906314    -14.590557    30.303356    -13.469069    -13.810299    -8.953091    39.833904    0.000000    0.000000    0.000000    -15.688160    4.131548    -22.193094    1.973045    28.025206    -7.760667    15.588533    -19.423105    -7.713543    0.000000    0.000000    0.000000    
